<svg width="58" height="50" viewBox="0 0 58 50" fill="none" xmlns="http://www.w3.org/2000/svg">
<path d="M30.2358 1.82422C30.2358 0.901848 29.4883 0.154297 28.5659 0.154297C27.6435 0.154297 26.896 0.901848 26.896 1.82422V8.97879C26.896 9.90116 27.6435 10.6487 28.5659 10.6487C29.4883 10.6487 30.2358 9.90116 30.2358 8.97879V1.82422Z" fill="#1F37FF"/>
<path d="M20.2305 11.9498C20.5563 12.2755 20.9837 12.439 21.4112 12.439C21.8383 12.439 22.2657 12.276 22.5919 11.9498C23.2438 11.2975 23.2438 10.2403 22.5919 9.588L19.0142 6.01072C18.3623 5.35841 17.3051 5.35841 16.6528 6.01072C16.0005 6.66303 16.0005 7.72021 16.6528 8.37253L20.2305 11.9498Z" fill="#1F37FF"/>
<path d="M35.7205 12.4386C36.1479 12.4386 36.5754 12.2755 36.9011 11.9494L40.4789 8.37209C41.1307 7.72021 41.1307 6.6626 40.4789 6.01072C39.8266 5.35841 38.7694 5.35841 38.1171 6.01072L34.5398 9.588C33.8875 10.2403 33.8875 11.2975 34.5398 11.9494C34.8659 12.2755 35.2934 12.4386 35.7205 12.4386Z" fill="#1F37FF"/>
<path d="M23.7349 16.2874C23.7175 16.3018 23.701 16.3157 23.6853 16.3287L16.4655 22.5179C15.7967 23.0911 14.9417 23.4072 14.0598 23.4072H8.88867C4.01589 23.4072 0.065918 27.3502 0.065918 32.23V48.3303C0.065918 49.2523 0.813469 50.0003 1.73584 50.0003H16.045C16.9678 50.0003 17.7149 49.2519 17.7149 48.3303V33.0001L26.2124 25.7164C26.6464 25.3446 26.896 24.8014 26.896 24.23V17.8186C26.896 16.1878 25.0017 15.2603 23.7349 16.2874Z" fill="#1F37FF"/>
<path d="M48.2432 23.4072H43.0721C42.1901 23.4072 41.3352 23.0911 40.6663 22.5175L33.4465 16.3287C33.4309 16.3157 33.4143 16.3018 33.3969 16.2874C32.1302 15.2603 30.2358 16.1878 30.2358 17.8186V24.23C30.2358 24.8014 30.4855 25.3446 30.9195 25.7164L39.4169 33.0001V48.3299C39.4169 49.2519 40.164 49.9998 41.0868 49.9998H55.396C56.3184 49.9998 57.0659 49.2523 57.0659 48.3299V32.23C57.0659 27.3502 53.1159 23.4072 48.2432 23.4072Z" fill="#1F37FF"/>
<path d="M15.9262 16.3708C15.9262 12.4913 12.7699 9.33496 8.89034 9.33496C5.01082 9.33496 1.85449 12.4913 1.85449 16.3708C1.85449 20.2508 5.01082 23.4071 8.89034 23.4071C12.7699 23.4071 15.9262 20.2508 15.9262 16.3708Z" fill="#1F37FF"/>
<path d="M55.2773 16.3708C55.2773 12.4913 52.1209 9.33496 48.2414 9.33496C44.3619 9.33496 41.2056 12.4913 41.2056 16.3708C41.2056 20.2508 44.3619 23.4071 48.2414 23.4071C52.1209 23.4071 55.2773 20.2508 55.2773 16.3708Z" fill="#1F37FF"/>
</svg>
