<svg width="58" height="57" viewBox="0 0 58 57" fill="none" xmlns="http://www.w3.org/2000/svg">
<path d="M28.5722 16.3779C25.0983 16.3779 22.2722 19.204 22.2722 22.6779C22.2722 26.152 25.0983 28.9782 28.5722 28.9782C32.0453 28.9782 34.8708 26.152 34.8708 22.6779C34.8707 19.204 32.0453 16.3779 28.5722 16.3779Z" fill="#1F37FF"/>
<path d="M57.0765 25.3349C57.0765 23.7898 55.9163 22.4889 54.3776 22.3089L51.142 21.9307C50.6825 20.2809 50.0265 18.6674 49.1888 17.126L51.1806 14.6089C52.1372 13.4008 52.0395 11.6606 50.9513 10.559L46.6806 6.28857C46.1048 5.713 45.3404 5.39596 44.5279 5.39596C43.8432 5.39596 43.1693 5.63144 42.63 6.05888L40.1995 7.98531C38.6039 7.07729 36.8967 6.36221 35.1157 5.85562L34.7483 2.69946C34.567 1.16032 33.2657 0 31.7213 0H25.6649C24.1195 0 22.8188 1.16032 22.6392 2.69946L22.2713 5.85505C20.4452 6.37196 18.6894 7.11418 17.0436 8.06475L14.5138 6.05888C13.9777 5.6337 13.3058 5.39963 12.6223 5.39963C11.8104 5.39963 11.0443 5.71427 10.4625 6.288L6.18275 10.5689C5.08928 11.6626 4.99034 13.4042 5.95235 14.6193L8.08727 17.3198C7.26024 18.864 6.6164 20.4939 6.1696 22.1741L2.76524 22.5625C1.22681 22.7434 0.0667661 24.0443 0.0667661 25.5881L0.065918 31.6448C0.0670488 33.1893 1.22794 34.4902 2.76679 34.6709L6.38587 35.0912C6.85514 36.6234 7.47679 38.0995 8.2371 39.4885L5.95334 42.3702C4.99627 43.5781 5.09423 45.3187 6.18303 46.4212L10.4633 50.7011C11.0389 51.2766 11.8032 51.5937 12.6156 51.5937C13.3005 51.5937 13.9746 51.3582 14.5139 50.9308L17.373 48.6682C18.8303 49.4795 20.3722 50.1319 21.9661 50.6113L22.3954 54.3009C22.5761 55.8399 23.8772 57.0005 25.4219 57.0005H31.4785C33.0227 57.0005 34.3236 55.8399 34.5045 54.2999L34.9136 50.7616C36.6291 50.2885 38.2933 49.6157 39.8698 48.7578L42.6295 50.9414C43.1664 51.3664 43.8387 51.6006 44.5222 51.6006C45.3341 51.6006 46.1001 51.2857 46.6808 50.7117L50.9615 46.4307C52.055 45.3368 52.1535 43.5955 51.1913 42.3816L49.0498 39.6646C49.9248 38.1024 50.6095 36.4678 51.0888 34.7958L54.3777 34.4178C55.9169 34.2362 57.0775 32.9348 57.0775 31.3905L57.0765 25.3349ZM22.1158 38.878V43.3197C21.2476 42.9401 20.4192 42.4865 19.6382 41.9669L22.1158 38.878ZM35.0269 38.8777L37.5046 41.9669C36.7236 42.4868 35.8949 42.9402 35.0269 43.3197V38.8777ZM35.3995 30.893C34.9049 30.1783 34.0899 29.7518 33.2194 29.7518C33.1881 29.7518 23.954 29.7518 23.9233 29.7518C23.053 29.7518 22.2379 30.1783 21.7507 30.8827L15.8558 38.4721C13.6954 35.7233 12.4054 32.2594 12.4054 28.5C12.4054 19.586 19.6576 12.334 28.5716 12.334C37.4855 12.334 44.7377 19.5862 44.7377 28.5C44.7377 32.2595 43.4477 35.7234 41.2872 38.4722L35.3995 30.893Z" fill="#1F37FF"/>
</svg>
