<svg width="47" height="57" viewBox="0 0 47 57" fill="none" xmlns="http://www.w3.org/2000/svg">
<path d="M17.125 10.5406C18.0464 10.5406 18.7933 9.79364 18.7933 8.87232V1.72488C18.7051 -0.488554 15.5441 -0.486886 15.4568 1.72488V8.87244C15.4568 9.79375 16.2037 10.5406 17.125 10.5406Z" fill="#1F37FF"/>
<path d="M8.7979 10.0526C9.44918 10.704 10.5056 10.7043 11.1571 10.0526C11.8086 9.40114 11.8086 8.34491 11.1571 7.69341L9.37033 5.9066C8.71893 5.25509 7.6626 5.25509 7.01109 5.9066C6.35958 6.55811 6.35958 7.61433 7.01109 8.26584L8.7979 10.0526Z" fill="#1F37FF"/>
<path d="M25.4524 10.0526L27.2392 8.26584C27.8907 7.61433 27.8907 6.55811 27.2392 5.9066C26.5878 5.25509 25.5314 5.25509 24.8799 5.9066L23.0931 7.69341C22.4416 8.34491 22.4416 9.40114 23.0931 10.0526C23.7444 10.704 24.8009 10.7043 25.4524 10.0526Z" fill="#1F37FF"/>
<path d="M37.2645 25.5379C38.2171 24.5853 38.2185 23.0419 37.2645 22.0881C36.3117 21.1353 34.7685 21.1342 33.8145 22.0881L28.0053 27.8972C27.0542 28.8484 27.0542 30.396 28.0053 31.3472C28.9568 32.2979 30.5046 32.298 31.4554 31.3472L37.2641 25.5384C37.2642 25.5381 37.2643 25.538 37.2645 25.5379Z" fill="#1F37FF"/>
<path d="M37.2643 37.1558L41.6213 32.7988H41.6214C42.5741 31.8461 42.5755 30.3027 41.6214 29.3488C40.6689 28.3962 39.1255 28.3947 38.1716 29.3488L33.8144 33.706C32.8635 34.6569 32.8637 36.2046 33.8147 37.1562C34.7672 38.1085 36.3104 38.1096 37.2643 37.1558Z" fill="#1F37FF"/>
<path d="M45.9784 36.6115C45.0343 35.6674 43.4903 35.6492 42.5287 36.6107L39.6243 39.5152C38.6702 40.4695 38.6716 42.0127 39.6237 42.9648C40.588 43.9304 42.1346 43.9051 43.0729 42.9656L45.9777 40.0608L45.9786 40.0599C46.9183 39.1213 46.9426 37.5744 45.9784 36.6115Z" fill="#1F37FF"/>
<path d="M35.5731 41.2406C35.5731 41.2294 35.5739 41.2183 35.5739 41.2071C34.02 41.2186 32.5535 40.6145 31.4551 39.5162C30.32 38.3805 29.7579 36.8861 29.7674 35.3948C28.2743 35.4061 26.7822 34.8415 25.6462 33.7074C23.3939 31.455 23.3939 27.7907 25.6459 25.5386L41.6214 9.56415C42.5321 8.65218 42.6083 7.09982 41.6278 6.11933C40.8116 5.30322 39.2629 5.02273 38.1716 6.11421L17.5675 26.7182L17.8399 26.9907C22.4942 31.645 22.4942 39.2181 17.8399 43.8724C17.1884 44.524 16.132 44.5238 15.4807 43.8724C14.8292 43.221 14.8292 42.1646 15.4807 41.5131C18.834 38.1597 18.834 32.7033 15.4807 29.3499C15.4807 29.3499 14.028 27.8964 14.0279 27.896C13.8112 27.6789 13.6542 27.4031 13.5828 27.0937L11.6738 18.8216C11.086 16.2742 8.38931 14.7976 5.91608 15.7052C5.25845 15.9465 4.82182 16.5734 4.82249 17.2738L4.84529 40.877L0.554548 45.1658C-0.0969588 45.8173 -0.0969588 46.8735 0.554548 47.5251L9.54085 56.5114C9.8537 56.8242 10.278 56.9999 10.7205 56.9999H27.1788C28.3781 56.9999 29.5062 56.5323 30.3554 55.6832L39.3695 46.6695C38.5868 46.3848 37.8694 45.9302 37.2636 45.3235C36.1737 44.2337 35.5731 42.7834 35.5731 41.2406Z" fill="#1F37FF"/>
</svg>
