<svg width="19" height="18" viewBox="0 0 19 18" fill="none" xmlns="http://www.w3.org/2000/svg">
<path d="M18.2023 5.19092C18.1618 4.27291 18.0134 3.64178 17.8007 3.0949C17.5813 2.51441 17.2438 1.99469 16.8016 1.56264C16.3696 1.12387 15.8464 0.782929 15.2726 0.566973C14.7226 0.354312 14.0948 0.205859 13.1767 0.165383C12.2519 0.12148 11.9583 0.111328 9.61254 0.111328C7.26681 0.111328 6.9732 0.12148 6.05176 0.161955C5.13375 0.202431 4.50262 0.351016 3.95588 0.563545C3.37525 0.782929 2.85553 1.12044 2.42348 1.56264C1.98471 1.99469 1.6439 2.51783 1.42781 3.09161C1.21515 3.64178 1.0667 4.26948 1.02622 5.18749C0.98232 6.11236 0.972168 6.40597 0.972168 8.7517C0.972168 11.0974 0.98232 11.391 1.0228 12.3125C1.06327 13.2305 1.21186 13.8616 1.42452 14.4085C1.6439 14.989 1.98471 15.5087 2.42348 15.9408C2.85553 16.3795 3.37867 16.7205 3.95245 16.9364C4.50262 17.1491 5.13032 17.2975 6.04847 17.338C6.96978 17.3786 7.26352 17.3886 9.60925 17.3886C11.955 17.3886 12.2486 17.3786 13.17 17.338C14.088 17.2975 14.7192 17.1491 15.2659 16.9364C16.427 16.4875 17.3451 15.5695 17.794 14.4085C18.0065 13.8583 18.1551 13.2305 18.1956 12.3125C18.236 11.391 18.2462 11.0974 18.2462 8.7517C18.2462 6.40597 18.2428 6.11236 18.2023 5.19092ZM16.6464 12.245C16.6092 13.0888 16.4675 13.5444 16.3494 13.8482C16.0591 14.6009 15.4617 15.1982 14.709 15.4885C14.4052 15.6067 13.9463 15.7484 13.1058 15.7855C12.1945 15.8261 11.9212 15.8361 9.61597 15.8361C7.31072 15.8361 7.03398 15.8261 6.12599 15.7855C5.2822 15.7484 4.82656 15.6067 4.52279 15.4885C4.14823 15.3501 3.80729 15.1307 3.53055 14.8438C3.24367 14.5637 3.02428 14.2262 2.88585 13.8516C2.76772 13.5478 2.62599 13.0888 2.58894 12.2484C2.54833 11.3371 2.53831 11.0637 2.53831 8.75843C2.53831 6.45317 2.54833 6.17644 2.58894 5.26858C2.62599 4.42479 2.76772 3.96915 2.88585 3.66538C3.02428 3.29069 3.24367 2.94988 3.53398 2.67301C3.81401 2.38612 4.15153 2.16674 4.52622 2.02844C4.82999 1.91031 5.28906 1.76858 6.12942 1.7314C7.04071 1.69092 7.31415 1.68077 9.61927 1.68077C11.9279 1.68077 12.2013 1.69092 13.1092 1.7314C13.953 1.76858 14.4087 1.91031 14.7124 2.02844C15.087 2.16674 15.4279 2.38612 15.7047 2.67301C15.9916 2.95317 16.211 3.29069 16.3494 3.66538C16.4675 3.96915 16.6092 4.42809 16.6464 5.26858C16.6869 6.17987 16.6971 6.45317 16.6971 8.75843C16.6971 11.0637 16.6869 11.3337 16.6464 12.245Z" fill="white"/>
<path d="M9.61263 4.31348C7.16236 4.31348 5.17432 6.30138 5.17432 8.75179C5.17432 11.2022 7.16236 13.1901 9.61263 13.1901C12.063 13.1901 14.051 11.2022 14.051 8.75179C14.051 6.30138 12.063 4.31348 9.61263 4.31348ZM9.61263 11.6308C8.02302 11.6308 6.73361 10.3415 6.73361 8.75179C6.73361 7.16205 8.02302 5.87277 9.61263 5.87277C11.2024 5.87277 12.4917 7.16205 12.4917 8.75179C12.4917 10.3415 11.2024 11.6308 9.61263 11.6308Z" fill="white"/>
<path d="M15.2626 4.13771C15.2626 4.7099 14.7987 5.17385 14.2263 5.17385C13.6541 5.17385 13.1902 4.7099 13.1902 4.13771C13.1902 3.56538 13.6541 3.10156 14.2263 3.10156C14.7987 3.10156 15.2626 3.56538 15.2626 4.13771Z" fill="white"/>
</svg>
