<svg width="189" height="78" viewBox="0 0 189 78" fill="none" xmlns="http://www.w3.org/2000/svg">
<g clip-path="url(#clip0)" filter="url(#filter0_d)">
<rect width="1600" height="6307" transform="translate(-941 -4486)" fill="white"/>
<rect x="-942.934" y="-319" width="1602" height="501" fill="#EBEDFF"/>
<rect x="-125.934" y="0.00683594" width="455" height="670.499" rx="10" fill="white" stroke="#1F37FF" stroke-opacity="0.1"/>
<path d="M146.046 53.6341C118.321 83.7239 70.8109 83.7239 43.0865 53.6341L1.40273 8.3939C-1.54935 5.18995 0.72323 0.00584235 5.07984 0.00584273L184.052 0.00585838C188.409 0.00585876 190.681 5.18996 187.729 8.3939L146.046 53.6341Z" fill="#1F37FF"/>
<path d="M93.006 44.4236C91.4649 42.7017 90.6161 40.4798 90.6161 38.1674C90.6161 32.9934 94.8254 28.7841 99.9994 28.7841C102.17 28.7841 104.231 29.5341 105.87 30.8485C107.509 29.5341 109.57 28.7841 111.741 28.7841C111.902 28.7841 112.062 28.7882 112.221 28.7962C112.094 22.6244 107.034 17.6426 100.833 17.6426C97.3643 17.6426 94.1249 19.2207 91.9828 21.8631C89.8409 19.2207 86.6014 17.6426 83.1329 17.6426C76.8515 17.6426 71.7415 22.7528 71.7415 29.034C71.7415 31.8414 72.7717 34.5385 74.6424 36.6286C76.509 38.7141 91.9826 53.3686 91.9826 53.3686C91.9826 53.3686 94.7141 50.8732 97.148 48.5381C95.2178 46.666 93.5091 44.9857 93.006 44.4236Z" fill="white"/>
<path d="M105.87 53.1309C105.87 53.1306 115.48 43.9622 116.697 42.6018C117.75 41.4253 118.391 39.8717 118.391 38.1685C118.391 34.4958 115.413 31.5186 111.741 31.5186C109.228 31.5186 107.041 32.9132 105.91 34.97H105.83C104.699 32.9132 102.512 31.5186 99.9993 31.5186C96.3266 31.5186 93.3494 34.4958 93.3494 38.1685C93.3494 39.8717 93.9896 41.4253 95.0427 42.6018C96.2603 43.9622 105.87 53.1307 105.87 53.1309Z" fill="white"/>
</g>
<defs>
<filter id="filter0_d" x="-945" y="-4486" width="1608" height="6315" filterUnits="userSpaceOnUse" color-interpolation-filters="sRGB">
<feFlood flood-opacity="0" result="BackgroundImageFix"/>
<feColorMatrix in="SourceAlpha" type="matrix" values="0 0 0 0 0 0 0 0 0 0 0 0 0 0 0 0 0 0 127 0" result="hardAlpha"/>
<feOffset dy="4"/>
<feGaussianBlur stdDeviation="2"/>
<feColorMatrix type="matrix" values="0 0 0 0 0 0 0 0 0 0 0 0 0 0 0 0 0 0 0.25 0"/>
<feBlend mode="normal" in2="BackgroundImageFix" result="effect1_dropShadow"/>
<feBlend mode="normal" in="SourceGraphic" in2="effect1_dropShadow" result="shape"/>
</filter>
<clipPath id="clip0">
<rect width="1600" height="6307" fill="white" transform="translate(-941 -4486)"/>
</clipPath>
</defs>
</svg>
