<svg width="190" height="78" viewBox="0 0 190 78" fill="none" xmlns="http://www.w3.org/2000/svg">
<g clip-path="url(#clip0)" filter="url(#filter0_d)">
<rect width="1600" height="6307" transform="translate(-457 -4486)" fill="white"/>
<rect x="-458.934" y="-319" width="1602" height="501" fill="#EBEDFF"/>
<rect x="-126.934" y="-0.498047" width="455" height="670.499" rx="10" fill="white" stroke="#1F37FF" stroke-opacity="0.1"/>
<path d="M145.046 53.1302C117.321 83.22 69.8109 83.22 42.0865 53.1302L0.402733 7.88999C-2.54935 4.68604 -0.276773 -0.498064 4.07984 -0.498064L183.052 -0.498048C187.409 -0.498047 189.681 4.68605 186.729 7.89L145.046 53.1302Z" fill="#1F37FF"/>
<g clip-path="url(#clip1)">
<path d="M108.235 38.2504C107.799 32.5832 105.161 29.0317 102.833 25.8978C100.678 22.9964 98.8159 20.4909 98.8159 16.795C98.8159 16.4981 98.6497 16.2268 98.386 16.0907C98.1216 15.9539 97.8039 15.9763 97.5635 16.151C94.0675 18.6526 91.1505 22.8689 90.1316 26.8918C89.4242 29.6926 89.3306 32.8413 89.3175 34.9208C86.089 34.2313 85.3576 29.402 85.3499 29.3494C85.3135 29.0989 85.1605 28.8809 84.9378 28.7619C84.7129 28.6444 84.4484 28.6358 84.2204 28.7487C84.0511 28.8307 80.0648 30.8561 79.8329 38.943C79.8167 39.2121 79.8159 39.4819 79.8159 39.7517C79.8159 47.6083 86.2088 54.0008 94.0659 54.0008C94.0768 54.0015 94.0883 54.0031 94.0976 54.0008C94.1007 54.0008 94.1038 54.0008 94.1076 54.0008C101.946 53.9783 108.316 47.5944 108.316 39.7517C108.316 39.3567 108.235 38.2504 108.235 38.2504ZM94.0659 52.4175C91.4466 52.4175 89.3159 50.1478 89.3159 47.3579C89.3159 47.2628 89.3152 47.1669 89.3221 47.0494C89.3538 45.8728 89.5772 45.0696 89.8223 44.5354C90.2816 45.5219 91.1026 46.4287 92.4362 46.4287C92.8738 46.4287 93.2279 46.0746 93.2279 45.6371C93.2279 44.51 93.2511 43.2097 93.5318 42.0361C93.7815 40.9956 94.3783 39.8885 95.1344 39.0011C95.4707 40.153 96.1264 41.0852 96.7665 41.9951C97.6827 43.2969 98.6297 44.6429 98.796 46.9381C98.806 47.0741 98.8161 47.211 98.8161 47.3579C98.8159 50.1478 96.6852 52.4175 94.0659 52.4175Z" fill="white"/>
</g>
</g>
<defs>
<filter id="filter0_d" x="-461" y="-4486" width="1608" height="6315" filterUnits="userSpaceOnUse" color-interpolation-filters="sRGB">
<feFlood flood-opacity="0" result="BackgroundImageFix"/>
<feColorMatrix in="SourceAlpha" type="matrix" values="0 0 0 0 0 0 0 0 0 0 0 0 0 0 0 0 0 0 127 0" result="hardAlpha"/>
<feOffset dy="4"/>
<feGaussianBlur stdDeviation="2"/>
<feColorMatrix type="matrix" values="0 0 0 0 0 0 0 0 0 0 0 0 0 0 0 0 0 0 0.25 0"/>
<feBlend mode="normal" in2="BackgroundImageFix" result="effect1_dropShadow"/>
<feBlend mode="normal" in="SourceGraphic" in2="effect1_dropShadow" result="shape"/>
</filter>
<clipPath id="clip0">
<rect width="1600" height="6307" fill="white" transform="translate(-457 -4486)"/>
</clipPath>
<clipPath id="clip1">
<rect width="38" height="38" fill="white" transform="translate(75.0659 16.002)"/>
</clipPath>
</defs>
</svg>
