<svg width="18" height="15" viewBox="0 0 18 15" fill="none" xmlns="http://www.w3.org/2000/svg">
<path d="M17.7059 2.41939C17.0665 2.69986 16.3852 2.88576 15.6749 2.97602C16.4056 2.53975 16.9634 1.85417 17.2255 1.02782C16.5443 1.43401 15.7921 1.72092 14.9904 1.88103C14.3435 1.19223 13.4216 0.765625 12.4158 0.765625C10.4643 0.765625 8.8933 2.34955 8.8933 4.2913C8.8933 4.57069 8.91694 4.83933 8.97497 5.09508C6.0446 4.95217 3.45166 3.5477 1.70977 1.40822C1.40567 1.93584 1.22729 2.53975 1.22729 3.18986C1.22729 4.41058 1.85591 5.49268 2.79294 6.11915C2.22664 6.10841 1.67109 5.944 1.20042 5.68502C1.20042 5.69577 1.20042 5.70974 1.20042 5.72371C1.20042 7.43658 2.42221 8.85932 4.0244 9.18706C3.73749 9.2655 3.42479 9.30311 3.10027 9.30311C2.87461 9.30311 2.6468 9.29022 2.43296 9.24294C2.88965 10.6388 4.18559 11.665 5.72653 11.6983C4.5273 12.6364 3.00463 13.2017 1.35624 13.2017C1.06718 13.2017 0.789935 13.1888 0.512695 13.1533C2.07405 14.1602 3.92447 14.7351 5.91995 14.7351C12.4061 14.7351 15.9522 9.36222 15.9522 4.70501C15.9522 4.5492 15.9468 4.39876 15.9393 4.24939C16.6388 3.75294 17.2266 3.13291 17.7059 2.41939Z" fill="white"/>
</svg>
