<svg width="20" height="15" viewBox="0 0 20 15" fill="none" xmlns="http://www.w3.org/2000/svg">
<path d="M10.1084 14.5023C10.1068 14.5023 10.1051 14.5023 10.1034 14.5023C9.5395 14.4984 4.55458 14.4529 3.14225 14.071C2.15522 13.8057 1.37606 13.0274 1.11002 12.0402C0.740466 10.6528 0.763991 7.9817 0.766557 7.76841C0.764133 7.55612 0.740324 4.86291 1.10887 3.46413C1.1093 3.46285 1.10959 3.46142 1.11002 3.46014C1.37306 2.48423 2.16976 1.68183 3.13983 1.41579C3.14225 1.41507 3.14482 1.4145 3.14724 1.41379C4.5436 1.04681 9.53836 1.0019 10.1034 0.998047H10.1135C10.6788 1.0019 15.677 1.04738 17.0763 1.4299C18.0608 1.69452 18.8394 2.47182 19.1061 3.45772C19.4895 4.8575 19.454 7.55654 19.4502 7.78438C19.4529 8.00879 19.4753 10.6559 19.1079 12.0503C19.1076 12.0517 19.1071 12.053 19.1069 12.0543C18.8407 13.0415 18.0617 13.8198 17.0735 14.0854C17.0722 14.0858 17.0708 14.0861 17.0695 14.0865C15.6733 14.4534 10.6784 14.4983 10.1135 14.5023C10.1118 14.5023 10.1101 14.5023 10.1084 14.5023ZM2.52006 3.83853C2.19557 5.07321 2.22622 7.73205 2.2265 7.75886V7.7781C2.21681 8.51549 2.25088 10.6509 2.5202 11.6624C2.6508 12.1467 3.03503 12.5303 3.52235 12.6614C4.56441 12.9432 8.62446 13.0319 10.1084 13.0423C11.5961 13.0319 15.6621 12.9457 16.6965 12.6751C17.1823 12.5436 17.5652 12.1612 17.6967 11.6763C17.9663 10.6501 18.0001 8.52504 17.9902 7.79236C17.9902 7.78466 17.9902 7.77696 17.9904 7.76926C18.0038 7.02304 17.9774 4.86263 17.6979 3.84309C17.6977 3.84209 17.6974 3.84109 17.6972 3.8401C17.5661 3.35364 17.1817 2.96997 16.6944 2.83895C15.6624 2.5568 11.5958 2.4684 10.1084 2.45799C8.62161 2.4684 4.55957 2.55452 3.52206 2.82483C3.04402 2.95743 2.65109 3.35478 2.52006 3.83853ZM18.402 11.8644H18.4024H18.402ZM8.24764 10.7064V4.79377L13.3575 7.75016L8.24764 10.7064Z" fill="white"/>
</svg>
